<?xml version="1.0" encoding="UTF-8"?>
<!DOCTYPE svg PUBLIC "-//W3C//DTD SVG 1.1//EN" "http://www.w3.org/Graphics/SVG/1.1/DTD/svg11.dtd">
<svg xmlns="http://www.w3.org/2000/svg" version="1.1" width="1500px" height="1500px" style="shape-rendering:geometricPrecision; text-rendering:geometricPrecision; image-rendering:optimizeQuality; fill-rule:evenodd; clip-rule:evenodd" xmlns:xlink="http://www.w3.org/1999/xlink">
<g><path style="opacity:0.99" fill="#eb2126" d="M 465.5,59.5 C 515.226,56.7568 563.559,63.5901 610.5,80C 701.901,117.436 754.401,185.27 768,283.5C 772.902,322.958 769.235,361.625 757,399.5C 744.264,440.634 725.931,478.967 702,514.5C 699.394,518.059 696.56,521.393 693.5,524.5C 663.901,496.738 634.401,468.738 605,440.5C 594.188,428.201 583.855,415.534 574,402.5C 573.333,400.833 573.333,399.167 574,397.5C 595.873,355.444 600.873,311.444 589,265.5C 572.164,213.345 536.33,188.845 481.5,192C 446.728,198.117 420.895,216.617 404,247.5C 392.887,269.838 387.887,293.504 389,318.5C 378.26,344.794 371.927,372.128 370,400.5C 368.719,415.178 368.219,429.845 368.5,444.5C 344.984,431.316 325.484,413.649 310,391.5C 295.116,358.399 280.783,325.066 267,291.5C 255.398,326.64 244.398,361.973 234,397.5C 233.17,402.143 232.503,406.81 232,411.5C 231.646,424.89 231.479,438.223 231.5,451.5C 218.408,433.431 209.241,413.431 204,391.5C 179.496,275.292 214.329,181.792 308.5,111C 356.018,79.2027 408.352,62.036 465.5,59.5 Z"/></g>
<g><path style="opacity:0.982" fill="#eb2126" d="M 432.5,312.5 C 431.612,341.846 438.446,369.513 453,395.5C 464.382,414.925 477.716,432.925 493,449.5C 524.598,480.769 557.098,510.936 590.5,540C 602.333,551.833 614.167,563.667 626,575.5C 635.101,585.932 643.435,596.932 651,608.5C 651.122,606.831 650.788,605.165 650,603.5C 639.566,582.952 626.899,563.952 612,546.5C 586.097,519.261 558.93,493.428 530.5,469C 519.601,458.77 509.434,447.937 500,436.5C 492.057,406.246 493.057,376.246 503,346.5C 505.72,339.391 509.22,332.725 513.5,326.5C 514.775,363.161 526.275,396.161 548,425.5C 567.622,451.132 589.455,474.965 613.5,497C 636.604,517.434 659.104,538.601 681,560.5C 697.97,579.091 711.97,599.757 723,622.5C 734.151,647.057 737.984,672.724 734.5,699.5C 753.546,704.886 763.546,717.552 764.5,737.5C 783.695,728.973 798.028,715.306 807.5,696.5C 813.425,747.143 800.258,792.143 768,831.5C 757.747,842.929 745.913,852.263 732.5,859.5C 732.167,859.167 731.833,858.833 731.5,858.5C 741.801,815.934 725.467,790.434 682.5,782C 675.554,780.627 668.554,779.627 661.5,779C 649.819,778.833 638.152,778.333 626.5,777.5C 633.498,766.681 638.665,755.015 642,742.5C 645.289,729.233 640.455,720.733 627.5,717C 610.028,713.183 592.362,711.85 574.5,713C 540.5,714.25 507.167,719.583 474.5,729C 494.733,729.956 514.733,732.623 534.5,737C 536.421,737.36 538.088,738.194 539.5,739.5C 529.002,757.826 522.669,777.493 520.5,798.5C 522.251,818.541 531.584,823.374 548.5,813C 551.333,810.167 554.167,807.333 557,804.5C 553.838,816.974 551.171,829.64 549,842.5C 543.38,869.546 554.213,881.046 581.5,877C 584.796,876.543 587.963,875.709 591,874.5C 590.772,879.306 589.105,883.639 586,887.5C 570.938,908.212 551.438,923.379 527.5,933C 507.101,942.101 485.768,946.767 463.5,947C 483.981,935.519 499.314,919.185 509.5,898C 509.333,897.5 509.167,897 509,896.5C 491.677,902.644 473.844,904.644 455.5,902.5C 473.921,889.535 485.421,871.868 490,849.5C 496.667,808.821 481,780.821 443,765.5C 415.868,756.908 389.035,757.741 362.5,768C 357.175,770.327 352.175,773.16 347.5,776.5C 347.167,776 346.833,775.5 346.5,775C 363.807,732.692 393.14,701.692 434.5,682C 413.052,675.222 391.385,669.555 369.5,665C 387.661,651.922 407.661,642.589 429.5,637C 451.352,630.302 473.685,626.302 496.5,625C 442.54,617.259 391.54,626.259 343.5,652C 335.82,656.506 328.487,661.506 321.5,667C 315.833,671.333 310.833,676.333 306.5,682C 320.394,683.788 334.227,685.955 348,688.5C 356.126,689.822 363.959,691.988 371.5,695C 340.402,702.215 311.069,713.882 283.5,730C 252.79,747.209 224.457,767.709 198.5,791.5C 198.167,791 197.833,790.5 197.5,790C 202.917,767.914 206.917,745.581 209.5,723C 206.745,693.574 190.745,676.24 161.5,671C 153.62,670.104 145.787,669.27 138,668.5C 119.363,669.58 100.863,671.747 82.5,675C 95.2609,663.126 108.928,652.459 123.5,643C 154.338,625.413 185.338,608.08 216.5,591C 224.828,585.909 232.328,579.742 239,572.5C 243.464,564.562 243.464,556.562 239,548.5C 223.5,522.333 202.667,501.5 176.5,486C 211.626,483.51 246.292,486.343 280.5,494.5C 281.167,494.167 281.833,493.833 282.5,493.5C 265.358,463.004 260.858,430.671 269,396.5C 269.36,394.579 270.194,392.912 271.5,391.5C 281.583,413.468 295.917,432.301 314.5,448C 325.22,456.387 336.22,464.387 347.5,472C 373.003,487.252 398.669,502.252 424.5,517C 442.226,528.131 458.393,541.298 473,556.5C 476.333,561.167 479.667,565.833 483,570.5C 481.744,563.078 479.077,556.078 475,549.5C 458.667,523.833 437.667,502.833 412,486.5C 405.73,467.01 402.563,447.01 402.5,426.5C 402.809,395.648 407.975,365.648 418,336.5C 421.111,327.274 425.944,319.274 432.5,312.5 Z M 583.5,617.5 C 583.56,616.957 583.893,616.624 584.5,616.5C 614.77,629.101 635.437,650.768 646.5,681.5C 621.813,679.979 604.313,667.979 594,645.5C 589.976,636.251 586.476,626.917 583.5,617.5 Z"/></g>
<g><path style="opacity:0.98" fill="#eb2126" d="M 1169.5,535.5 C 1172.52,535.335 1175.52,535.502 1178.5,536C 1166.33,542.583 1154.66,549.916 1143.5,558C 1136.78,563.371 1131.62,569.871 1128,577.5C 1127.57,588.909 1133.07,593.076 1144.5,590C 1159.55,585.488 1174.55,580.822 1189.5,576C 1243.59,561.443 1296.59,564.776 1348.5,586C 1392.06,604.095 1430.06,630.095 1462.5,664C 1394.69,654.022 1329.69,663.689 1267.5,693C 1260.34,697.339 1253.34,701.839 1246.5,706.5C 1212.27,684.353 1174.93,676.853 1134.5,684C 1093.4,691.125 1059.23,710.292 1032,741.5C 1004.3,774.563 979.301,809.563 957,846.5C 939.954,875.925 923.954,905.925 909,936.5C 887.844,919.347 866.678,902.18 845.5,885C 835.241,878.704 824.574,873.204 813.5,868.5C 862.984,799.846 922.984,742.346 993.5,696C 1035.12,669.344 1080.12,650.677 1128.5,640C 1141.06,637.514 1153.72,635.847 1166.5,635C 1125.27,632.444 1085.27,638.444 1046.5,653C 975.601,678.34 915.435,719.174 866,775.5C 867.894,764.146 871.227,753.146 876,742.5C 905.314,679.397 947.814,626.897 1003.5,585C 1010.67,580.249 1018,575.749 1025.5,571.5C 1025.83,571.667 1026.17,571.833 1026.5,572C 1015.21,585.305 1006.38,600.139 1000,616.5C 998.306,627.468 1002.81,631.301 1013.5,628C 1019.43,625.065 1025.09,621.732 1030.5,618C 1045.83,605.333 1061.17,592.667 1076.5,580C 1096.49,564.04 1118.49,551.373 1142.5,542C 1151.52,539.328 1160.52,537.161 1169.5,535.5 Z"/></g>
<g><path style="opacity:0.993" fill="#eb2126" d="M 167.5,710.5 C 169.903,710.393 171.736,711.393 173,713.5C 174.899,716.374 175.733,719.541 175.5,723C 172.054,745.897 168.221,768.73 164,791.5C 161.556,823.496 159.556,855.496 158,887.5C 183.432,858.732 209.599,830.565 236.5,803C 261.822,782.541 289.155,765.041 318.5,750.5C 318.833,750.833 319.167,751.167 319.5,751.5C 316.471,757.891 314.304,764.557 313,771.5C 308.608,796.853 304.108,822.186 299.5,847.5C 299.833,848.5 300.167,849.5 300.5,850.5C 325.486,832.353 351.153,815.186 377.5,799C 395.416,792.228 413.416,791.895 431.5,798C 390.978,838.845 361.478,886.679 343,941.5C 325.682,994.123 326.349,1046.46 345,1098.5C 369.008,1158.84 413.175,1193.34 477.5,1202C 502.177,1203.94 525.844,1199.94 548.5,1190C 575.879,1177.65 600.546,1161.32 622.5,1141C 652.494,1112.53 678.494,1081.03 700.5,1046.5C 741.017,1078.19 780.517,1111.19 819,1145.5C 819.85,1147.01 820.683,1148.51 821.5,1150C 788.93,1217.24 744.93,1275.9 689.5,1326C 600.001,1399.3 497.668,1427.63 382.5,1411C 321.448,1400.13 267.448,1374.8 220.5,1335C 201.805,1317.32 184.972,1298.15 170,1277.5C 160.849,1267.24 153.515,1268.24 148,1280.5C 147.001,1299.84 150.501,1318.34 158.5,1336C 157.5,1336.67 156.5,1336.67 155.5,1336C 85.7484,1266.16 51.0818,1181.5 51.5,1082C 52.4184,1026.32 61.9184,972.156 80,919.5C 82.527,912.818 81.6936,906.651 77.5,901C 72.3889,899.889 67.7223,900.889 63.5,904C 53,911.833 43.8333,921 36,931.5C 40.0309,887.103 54.0309,846.103 78,808.5C 102.421,770.911 132.255,738.244 167.5,710.5 Z"/></g>
<g><path style="opacity:0.991" fill="#eb2126" d="M 573.5,743.5 C 573.881,764.405 583.214,780.239 601.5,791C 609.398,795.188 617.732,798.188 626.5,800C 642.541,801.695 658.541,803.695 674.5,806C 688.507,809.024 698.673,816.857 705,829.5C 709.127,845.134 713.127,860.8 717,876.5C 721.652,887.802 730.152,893.635 742.5,894C 758.565,894.631 774.565,895.964 790.5,898C 801.552,900.238 811.885,904.238 821.5,910C 879.868,957.189 937.868,1004.86 995.5,1053C 1010.83,1065.24 1028.33,1072.08 1048,1073.5C 1088.46,1068.87 1109.96,1046.21 1112.5,1005.5C 1112.78,997.069 1111.45,988.903 1108.5,981C 1108.83,980.5 1109.17,980 1109.5,979.5C 1138.52,998.163 1156.69,1024.5 1164,1058.5C 1169.42,1083.44 1168.42,1108.11 1161,1132.5C 1155.34,1150.01 1145.18,1164.18 1130.5,1175C 1169.46,1182.48 1206.12,1176.14 1240.5,1156C 1280.27,1127.07 1289.77,1090.24 1269,1045.5C 1253.76,1021.28 1232.26,1005.45 1204.5,998C 1273.07,992.07 1330.57,1014.24 1377,1064.5C 1413.98,1111.08 1423.31,1162.74 1405,1219.5C 1382.44,1273.39 1343.27,1309.23 1287.5,1327C 1258,1335.88 1228,1338.55 1197.5,1335C 1219.95,1352.22 1245.28,1362.88 1273.5,1367C 1288.84,1370.24 1304.17,1370.24 1319.5,1367C 1324.37,1366.12 1329.04,1364.62 1333.5,1362.5C 1334.58,1363.36 1334.75,1364.36 1334,1365.5C 1321.52,1381.81 1306.35,1394.98 1288.5,1405C 1230.64,1437.87 1169.31,1446.87 1104.5,1432C 1049.61,1414.45 1010.45,1379.28 987,1326.5C 978.538,1306.65 973.205,1285.99 971,1264.5C 948.527,1290.04 940.193,1319.71 946,1353.5C 949.452,1373.4 957.952,1390.74 971.5,1405.5C 971,1405.83 970.5,1406.17 970,1406.5C 922.747,1390.91 891.081,1359.58 875,1312.5C 869.871,1292.47 868.204,1272.14 870,1251.5C 872.517,1228.18 872.85,1204.85 871,1181.5C 866.977,1153.95 854.477,1131.11 833.5,1113C 788.083,1074.25 742.083,1036.25 695.5,999C 663.866,971.146 648.7,935.98 650,893.5C 646.905,877.816 639.071,864.982 626.5,855C 611.085,843.589 596.252,831.423 582,818.5C 564.739,795.208 561.906,770.208 573.5,743.5 Z"/></g>
</svg>
